<?xml version="1.0" encoding="utf-8"?>
<!-- Generator: Adobe Illustrator 19.1.0, SVG Export Plug-In . SVG Version: 6.00 Build 0)  -->
<svg version="1.1" id="Layer_1" xmlns="http://www.w3.org/2000/svg" xmlns:xlink="http://www.w3.org/1999/xlink" x="0px" y="0px"
	 viewBox="0 0 626 223" style="enable-background:new 0 0 626 223;" xml:space="preserve">
<g>
	<rect x="401" width="42" height="165"/>
	<path d="M343,53v71H223V0H57v166h124v15H42v-71H0v113h223v-57h162V53H343z M181,124H99V42h82V124z"/>
	<path d="M460,0v165h124v16H236v42h390V0H460z M502,123V42h82v81H502z"/>
	<rect x="343" width="42" height="42"/>
	<rect x="290" width="42" height="42"/>
	<rect y="54" width="42" height="42"/>
	<rect x="0" y="0" width="42" height="42"/>
	<rect x="236" width="42" height="42"/>
</g>
</svg>
